<svg xmlns="http://www.w3.org/2000/svg" xmlns:xlink="http://www.w3.org/1999/xlink" width="256" height="249" preserveAspectRatio="xMidYMid" version="1.1" viewBox="0 0 256 249"><defs><linearGradient id="linearGradient-1" x1="-388.148%" x2="237.684%" y1="-113.678%" y2="370.655%"><stop offset="0%" stop-color="#C06FBB"/><stop offset="100%" stop-color="#6E4D9B"/></linearGradient><linearGradient id="linearGradient-2" x1="72.945%" x2="-97.052%" y1="79.515%" y2="-119.502%"><stop offset="0%" stop-color="#6E4D9B"/><stop offset="14%" stop-color="#77327A"/><stop offset="29%" stop-color="#B31777"/><stop offset="84%" stop-color="#CD0F7E"/><stop offset="100%" stop-color="#ED2C89"/></linearGradient><linearGradient id="linearGradient-3" x1="-232.212%" x2="250.776%" y1="-693.6%" y2="101.71%"><stop offset="0%" stop-color="#C06FBB"/><stop offset="100%" stop-color="#6E4D9B"/></linearGradient><linearGradient id="linearGradient-4" x1="-821.186%" x2="101.985%" y1="-466.93%" y2="287.264%"><stop offset="0%" stop-color="#C06FBB"/><stop offset="100%" stop-color="#6E4D9B"/></linearGradient><linearGradient id="linearGradient-5" x1="-140.095%" x2="418.499%" y1="-230.926%" y2="261.977%"><stop offset="0%" stop-color="#C06FBB"/><stop offset="100%" stop-color="#6E4D9B"/></linearGradient><linearGradient id="linearGradient-6" x1="191.084%" x2="20.358%" y1="225.067%" y2="24.595%"><stop offset="0%" stop-color="#6E4D9B"/><stop offset="14%" stop-color="#77327A"/><stop offset="29%" stop-color="#B31777"/><stop offset="84%" stop-color="#CD0F7E"/><stop offset="100%" stop-color="#ED2C89"/></linearGradient><linearGradient id="linearGradient-7" x1="-388.094%" x2="237.675%" y1="-138.728%" y2="445.405%"><stop offset="0%" stop-color="#C06FBB"/><stop offset="100%" stop-color="#6E4D9B"/></linearGradient><linearGradient id="linearGradient-8" x1="11.503%" x2="89.819%" y1="89.653%" y2="11.577%"><stop offset="0%" stop-color="#6E4D9B"/><stop offset="14%" stop-color="#77327A"/><stop offset="53%" stop-color="#B31777"/><stop offset="79%" stop-color="#CD0F7E"/><stop offset="100%" stop-color="#ED2C89"/></linearGradient></defs><g><path fill="url(#linearGradient-1)" d="M167.876207,46.3687469 L144.195715,62.173447 L119.80056,25.6145151 L143.481051,9.80981504 L167.876207,46.3687469 L167.876207,46.3687469 L167.876207,46.3687469 Z"/><path fill="url(#linearGradient-2)" d="M187.128711,156.199437 L227.589323,216.829994 L179.391024,248.994707 L138.930412,188.363184 L131.871655,177.787122 L180.07092,145.622408 L187.128711,156.199437 L187.128711,156.199437 L187.128711,156.199437 Z"/><path fill="url(#linearGradient-3)" d="M126.421861,196.710267 L135.330053,210.059034 L98.6436403,234.541108 L82.6766922,210.615313 L90.6915535,205.266921 L119.36407,186.133238 L126.421861,196.710267 L126.421861,196.710267 L126.421861,196.710267 Z"/><path fill="url(#linearGradient-4)" d="M207.172143,127.536576 L217.46234,120.670006 L233.428323,144.595801 L209.744934,160.400501 L200.836742,147.051735 L214.229934,138.113604 L207.172143,127.536576 L207.172143,127.536576 L207.172143,127.536576 L207.172143,127.536576 Z M200.836742,147.051735 L193.778952,136.474706 L207.172143,127.536576 L214.229934,138.113604 L200.836742,147.051735 L200.836742,147.051735 L200.836742,147.051735 L200.836742,147.051735 Z"/><path fill="url(#linearGradient-5)" d="M41.1093181,130.966968 L33.0954225,136.315359 L8.69833531,99.7564274 L45.3847478,75.2743531 L62.4855008,100.900856 L33.8139497,120.034538 L62.4855008,100.900856 L69.781835,111.834251 L41.1093181,130.966968 L41.1093181,130.966968 L41.1093181,130.966968 Z"/><path fill="url(#linearGradient-6)" d="M130.488688,71.3224496 L82.2894234,103.487163 L74.994055,92.5537678 L34.9120223,32.4910791 L83.1112871,0.3263657 L123.19332,60.3890547 L130.488688,71.3224496 Z"/><path fill="url(#linearGradient-7)" d="M157.589904,53.2375841 L144.196713,62.1747484 L136.900379,51.2423191 L119.799626,25.6158165 L143.483014,9.81111647 L167.880102,46.3700483 L157.589904,53.2375841 L157.589904,53.2375841 L157.589904,53.2375841 Z"/><path fill="#714896" d="M97.7503053,215.84395 L90.6915487,205.266921 L119.364066,186.133238 L126.421857,196.710267 L97.7503053,215.84395 L97.7503053,215.84395 L97.7503053,215.84395 Z"/><path fill="#6F4795" d="M200.836744,147.051736 L193.778953,136.474708 L207.172145,127.536577 L214.229936,138.113606 L200.836744,147.051736 L200.836744,147.051736 L200.836744,147.051736 Z"/><path fill="#88519F" d="M41.1093172,130.966965 L33.8139488,120.034536 L62.4854999,100.900853 L69.7818341,111.834248 L41.1093172,130.966965 L41.1093172,130.966965 L41.1093172,130.966965 Z"/><path fill="#85509E" d="M144.196718,62.1747499 L136.900384,51.2423206 L150.294542,42.3041905 L157.58991,53.2375855 L144.196718,62.1747499 L144.196718,62.1747499 L144.196718,62.1747499 Z"/><path fill="#8D166A" d="M187.128711,156.199434 L138.930412,188.363182 L131.871655,177.787119 L180.07092,145.622405 L187.128711,156.199434 L187.128711,156.199434 L187.128711,156.199434 Z"/><path fill="#A70D6F" d="M123.19332,60.3890532 L130.488688,71.3224482 L82.2894233,103.487162 L74.9940548,92.5537666 L123.19332,60.3890532 L123.19332,60.3890532 L123.19332,60.3890532 Z"/><path fill="#9E61AD" d="M27.4386316,51.6530056 L36.5361217,65.2857977 L22.9033297,74.3832878 L13.8058395,60.7504958 L27.4386316,51.6530056 L27.4386316,51.6530056 Z"/><path fill="#8053A3" d="M76.5679915,215.084186 L85.6654817,228.716978 L72.0326896,237.814468 L62.9351995,224.181676 L76.5679915,215.084186 L76.5679915,215.084186 Z"/><path fill="url(#linearGradient-8)" d="M40.7042434,228.813811 L0.791684264,168.517994 L214.08857,25.8555586 L255.941111,85.1892808 L40.7042434,228.813811 L40.7042434,228.813811 L40.7042434,228.813811 L40.7042434,228.813811 Z"/></g></svg>