<svg xmlns="http://www.w3.org/2000/svg" xmlns:xlink="http://www.w3.org/1999/xlink" id="Layer_1" x="0" y="0" version="1.1" viewBox="0 0 80 80" xml:space="preserve" style="enable-background:new 0 0 80 80"><style type="text/css">.st0{fill:#e9478b}.st1{fill:#3ebeb0}.st2{fill:#37a595}.st3{fill:#353535}.st4{fill:none}</style><g><path d="M19.6,33.1c7.3,0,14.2,1.9,20.2,5.1l21.4-25.7H18.8v51l0,0V33.1C19.1,33.1,19.4,33.1,19.6,33.1z" class="st0"/><path d="M39.8,38.2l-21,25.3v4h42.3C58.7,54.9,50.7,44.2,39.8,38.2z" class="st1"/><path d="M39.8,38.2l-21,25.3v4h7.5l20.4-24.6c0,0-1.4-1.1-3.3-2.5C42,39.4,39.8,38.2,39.8,38.2z" class="st2"/><path d="M19.6,33.1c-0.3,0-0.5,0-0.8,0v30.4l21-25.3C33.8,35,26.9,33.1,19.6,33.1z" class="st3"/></g><rect width="80" height="80" class="st4"/></svg>