<svg xmlns="http://www.w3.org/2000/svg" xmlns:xlink="http://www.w3.org/1999/xlink" width="114" height="97" version="1.1" viewBox="0 0 114 97"><title>Logo</title><desc>Created with Sketch.</desc><g id="Styleguide" fill="none" fill-rule="evenodd" stroke="none" stroke-width="1"><g id="wappalyzer_rebrand" transform="translate(-317.000000, -669.000000)"><g id="Logo" transform="translate(317.000000, 669.000000)"><g id="Logo-Mark-Purple"><polygon id="Fill-1" fill="#1C0172" points="57.029 74.662 6.538 48.453 .002 53.14 -.001 56.007 57.029 96.905 114.055 56.009 114.058 53.143 107.519 48.453"/><path id="Fill-2" fill="#4608AD" d="M57.0285,0.0003 L0.0025,40.8963 L-0.0005,43.7633 L57.0285,84.6623 L114.0545,43.7653 L114.0575,40.8983 L57.0285,0.0003 Z M64.4895,40.3623 L57.5365,30.7743 L63.4645,26.4363 L75.8235,44.7273 L70.8465,48.3703 L57.5555,42.8723 L57.4985,42.9133 L65.0675,52.5983 L60.0905,56.2403 L35.0915,47.1963 L41.0385,42.8443 L54.1065,47.9333 L54.1805,47.8783 L46.9285,38.5343 L51.6075,35.1113 L64.4145,40.4173 L64.4895,40.3623 Z"/></g></g></g></g></svg>