<svg xmlns="http://www.w3.org/2000/svg" xmlns:xlink="http://www.w3.org/1999/xlink" width="389" height="97" version="1.1" viewBox="0 0 389 97"><title>Logo-White</title><desc>Created with Sketch.</desc><g id="Styleguide" fill="none" fill-rule="evenodd" stroke="none" stroke-width="1"><g id="wappalyzer_rebrand" fill="#FFF" transform="translate(-317.000000, -1149.000000)"><g id="Logo-White" transform="translate(317.000000, 1149.000000)"><g id="Logo-Mark-White"><polygon id="Fill-1" points="57.029 74.662 6.538 48.453 .002 53.14 -.001 56.007 57.029 96.905 114.055 56.009 114.058 53.143 107.519 48.453" opacity=".6"/><path id="Fill-2" d="M57.0285,0.0003 L0.0025,40.8963 L-0.0005,43.7633 L57.0285,84.6623 L114.0545,43.7653 L114.0575,40.8983 L57.0285,0.0003 Z M64.4895,40.3623 L57.5365,30.7743 L63.4645,26.4363 L75.8235,44.7273 L70.8465,48.3703 L57.5555,42.8723 L57.4985,42.9133 L65.0675,52.5983 L60.0905,56.2403 L35.0915,47.1963 L41.0385,42.8443 L54.1065,47.9333 L54.1805,47.8783 L46.9285,38.5343 L51.6075,35.1113 L64.4145,40.4173 L64.4895,40.3623 Z"/></g><g id="Wappalyzer" transform="translate(133.000000, 23.905100)"><path id="Fill-4" d="M57.8766,28.762 C60.5366,28.762 62.6966,26.647 62.6966,23.394 C62.6966,20.257 60.6276,17.983 57.8996,17.983 C55.1256,17.983 53.0106,20.143 53.0106,23.394 C53.0106,26.6 55.0346,28.76 57.8766,28.76 L57.8766,28.762 L57.8766,28.762 Z M69.6996,11.958 L69.6996,34.74 L62.7876,34.74 L62.7876,32.284 L62.6966,32.284 C61.2416,34.194 59.1046,35.172 56.3756,35.172 C50.1006,35.172 45.6446,30.42 45.6446,23.372 C45.6446,16.414 50.1456,11.526 56.0346,11.526 C58.4906,11.526 60.6956,12.481 62.3106,14.368 L62.4016,14.368 L62.4016,11.958 L69.6996,11.958 L69.6996,11.958 Z"/><path id="Fill-6" d="M91.2316,23.3943 C91.2316,20.1433 89.1166,17.9833 86.3436,17.9833 C83.4326,17.9833 81.3406,20.2563 81.3406,23.3943 C81.3406,26.6453 83.5006,28.7603 86.3656,28.7603 C89.2076,28.7603 91.2316,26.6003 91.2316,23.3943 M98.5986,23.3713 C98.5986,30.4203 94.1196,35.1723 87.8666,35.1723 C85.2516,35.1723 83.2056,34.2173 81.7276,32.5113 L81.6136,32.5113 L81.6136,43.9483 L74.3386,43.9483 L74.3386,11.9573 L81.6366,11.9573 L81.6366,14.4133 L81.7276,14.4133 C83.3646,12.5033 85.6386,11.5253 88.2076,11.5253 C94.0966,11.5253 98.5986,16.4143 98.5986,23.3713"/><path id="Fill-8" d="M119.1525,23.3943 C119.1525,20.1433 117.0375,17.9833 114.2645,17.9833 C111.3535,17.9833 109.2615,20.2563 109.2615,23.3943 C109.2615,26.6453 111.4215,28.7603 114.2865,28.7603 C117.1285,28.7603 119.1525,26.6003 119.1525,23.3943 M126.5195,23.3713 C126.5195,30.4203 122.0405,35.1723 115.7875,35.1723 C113.1725,35.1723 111.1265,34.2173 109.6485,32.5113 L109.5345,32.5113 L109.5345,43.9483 L102.2595,43.9483 L102.2595,11.9573 L109.5575,11.9573 L109.5575,14.4133 L109.6485,14.4133 C111.2855,12.5033 113.5595,11.5253 116.1285,11.5253 C122.0175,11.5253 126.5195,16.4143 126.5195,23.3713"/><path id="Fill-10" d="M141.2527,28.762 C143.9127,28.762 146.0727,26.647 146.0727,23.394 C146.0727,20.257 144.0037,17.983 141.2757,17.983 C138.5017,17.983 136.3867,20.143 136.3867,23.394 C136.3867,26.6 138.4107,28.76 141.2527,28.76 L141.2527,28.762 Z M153.0757,11.958 L153.0757,34.74 L146.1637,34.74 L146.1637,32.284 L146.0727,32.284 C144.6177,34.194 142.4807,35.172 139.7517,35.172 C133.4767,35.172 129.0207,30.42 129.0207,23.372 C129.0207,16.414 133.5217,11.526 139.4107,11.526 C141.8667,11.526 144.0717,12.481 145.6867,14.368 L145.7777,14.368 L145.7777,11.958 L153.0757,11.958 Z"/><polygon id="Fill-12" points="157.964 34.74 165.217 34.74 165.217 .453 157.964 .453"/><polygon id="Fill-14" points="192.115 11.958 180.155 43.949 172.948 43.949 176.881 33.194 167.991 11.958 175.54 11.958 180.178 24.304 180.292 24.304 184.657 11.958"/><polygon id="Fill-15" points="203.256 28.783 203.256 28.874 212.942 28.874 212.942 34.74 193.729 34.74 193.729 29.874 203.574 17.892 203.574 17.801 194.593 17.801 194.593 11.958 213.328 11.958 213.328 16.778"/><path id="Fill-16" d="M222.2624,20.9615 L230.7884,20.9165 C230.3114,18.7105 228.8334,17.3465 226.6504,17.3465 C224.4674,17.3465 222.7394,18.6195 222.2624,20.9615 L222.2624,20.9615 Z M237.9284,23.1445 C237.9284,23.7805 237.8144,24.8045 237.7464,25.3045 L222.2394,25.3045 C222.7624,27.8735 225.0134,29.2375 227.6284,29.2375 C229.7424,29.2375 231.5844,28.3055 233.1554,26.4865 L237.0184,30.8295 C235.0874,33.2625 231.5864,35.1725 226.8574,35.1725 C220.1044,35.1725 215.0114,30.3975 215.0114,23.3485 C215.0114,16.4365 219.8994,11.5255 226.5844,11.5255 C233.2234,11.5255 237.9294,16.3685 237.9294,23.1445 L237.9284,23.1445 Z"/><path id="Fill-17" d="M255.7556,11.5484 L255.7556,19.3924 C255.0966,19.3474 254.4146,19.3474 254.0506,19.3474 C250.5946,19.3474 248.8206,21.5294 248.8206,24.5084 L248.8206,34.7404 L241.5446,34.7404 L241.5446,11.9574 L248.8206,11.9574 L248.8206,15.0044 L248.9116,15.0044 C250.6396,12.7304 253.0046,11.5254 255.5056,11.5254 C255.5736,11.5254 255.6876,11.5254 255.7556,11.5484"/><polygon id="Fill-3" points="47.19 1.658 36.845 34.74 29.728 34.74 24.18 12.981 24.112 12.981 18.36 34.74 11.243 34.74 .898 1.658 9.197 1.658 14.79 21.962 14.858 21.962 19.974 1.658 28.182 1.658 33.23 21.962 33.298 21.962 38.891 1.658"/></g></g></g></g></svg>